 <svg  version="1.0" xmlns="http://www.w3.org/2000/svg"  width="200.000000pt" height="200.000000pt" viewBox="0 0 200.000000 200.000000"  preserveAspectRatio="xMidYMid meet">  <g transform="translate(0.000000,200.000000) scale(0.100000,-0.100000)" fill="#0080ff" stroke="none"> <path d="M850 1859 c-269 -45 -527 -244 -641 -494 -67 -148 -94 -340 -70 -495 59 -375 356 -672 731 -731 99 -15 265 -6 360 21 292 82 527 317 610 610 27 95 36 261 21 360 -75 480 -530 808 -1011 729z m340 -59 c238 -57 440 -219 545 -435 59 -122 76 -188 82 -335 4 -106 2 -139 -16 -215 -90 -376 -416 -635 -801 -635 -385 0 -711 259 -801 635 -18 75 -20 110 -16 215 5 148 22 214 82 335 107 217 306 377 540 434 111 27 272 27 385 1z"/> <path d="M810 1740 c-341 -88 -570 -386 -570 -740 0 -429 331 -760 760 -760 428 0 760 332 760 760 0 356 -230 652 -574 740 -106 27 -271 27 -376 0z m270 -27 c0 -4 -9 -16 -19 -27 -11 -12 -24 -37 -29 -56 l-9 -35 -7 42 c-4 23 -14 47 -22 54 -25 21 -15 29 36 29 28 0 50 -3 50 -7z m-106 -85 c3 -29 6 -72 6 -95 0 -42 -1 -43 -33 -43 -19 0 -54 -6 -79 -14 l-46 -13 -31 82 c-17 45 -31 84 -31 87 0 8 133 39 196 47 6 0 14 -22 18 -51z m-234 27 c-12 -15 -10 -68 5 -110 4 -11 -6 -4 -24 17 -18 21 -42 44 -53 52 -20 14 -20 15 13 35 42 26 78 29 59 6z m486 -17 c35 -11 63 -24 62 -28 -2 -4 -19 -42 -38 -84 -30 -65 -38 -75 -55 -70 -11 3 -46 13 -78 23 l-59 16 7 55 c14 126 13 123 57 116 21 -4 68 -16 104 -28z m123 -2 c35 -19 59 -46 40 -46 -7 0 -33 -19 -58 -42 -28 -28 -41 -36 -36 -23 26 71 27 77 16 101 -12 28 -3 31 38 10z m-643 -127 c38 -65 44 -83 33 -90 -8 -5 -16 -9 -19 -9 -3 0 -25 -18 -49 -40 l-43 -40 -68 59 -68 59 41 40 c32 31 111 96 124 101 0 1 22 -35 49 -80z m783 -43 c30 -31 53 -57 50 -59 -2 -2 -35 -27 -72 -56 l-69 -53 -36 39 c-20 22 -47 46 -60 55 l-22 15 51 76 52 76 26 -19 c14 -10 50 -43 80 -74z m-1026 -4 c-2 -10 11 -37 32 -66 l37 -47 -41 20 c-44 23 -76 27 -86 11 -3 -5 -11 -10 -17 -10 -12 0 14 44 50 83 30 32 32 32 25 9z m519 -39 c3 -27 0 -29 -57 -40 -54 -12 -61 -11 -73 4 -19 26 -10 37 44 50 76 17 82 16 86 -14z m161 0 c51 -16 52 -18 34 -48 -12 -20 -12 -20 -72 0 -55 18 -60 22 -57 46 3 30 7 30 95 2z m484 -56 c17 -34 12 -43 -16 -28 -16 9 -29 8 -57 -4 -56 -23 -61 -18 -21 22 21 20 37 45 37 56 0 20 0 20 21 1 12 -10 28 -32 36 -47z m-827 -24 c0 -7 -4 -13 -8 -13 -5 0 -26 -15 -48 -34 -38 -33 -40 -33 -61 -16 l-22 17 27 25 c15 14 40 34 56 46 27 21 29 21 42 5 7 -10 14 -24 14 -30z m235 17 c18 -20 17 -20 -18 -20 -39 0 -45 8 -25 28 16 16 22 15 43 -8z m287 -49 c35 -33 37 -36 21 -53 -9 -10 -19 -18 -23 -18 -3 0 -27 19 -51 43 -43 41 -45 45 -31 65 16 25 20 24 84 -37z m-817 3 c74 -46 84 -57 65 -69 -5 -3 -19 -33 -31 -65 -12 -33 -23 -60 -26 -60 -2 0 -42 10 -89 21 -77 20 -84 23 -78 43 7 26 76 176 80 176 2 0 37 -21 79 -46z m375 10 c0 -2 -17 -12 -37 -23 -44 -22 -75 -50 -119 -105 l-31 -40 5 32 c3 24 15 38 51 61 25 17 56 44 69 60 16 20 29 27 42 24 11 -3 20 -7 20 -9z m334 -41 l29 -36 -30 18 c-16 9 -40 26 -54 36 l-24 19 25 0 c17 0 34 -12 54 -37z m406 -9 c21 -48 52 -156 46 -161 -4 -5 -169 -33 -172 -30 -9 9 -51 153 -46 155 5 2 139 75 149 81 1 0 11 -20 23 -45z m-498 -2 c58 -25 118 -85 149 -148 19 -39 24 -65 24 -124 0 -88 -25 -150 -85 -210 -60 -60 -122 -85 -210 -85 -59 0 -85 5 -124 24 -245 120 -227 462 29 554 62 22 153 18 217 -11z m-464 -55 c10 -8 10 -14 -1 -31 -8 -12 -19 -37 -26 -58 -11 -33 -14 -35 -39 -28 -31 8 -30 14 3 88 24 53 29 55 63 29z m655 -42 c3 -16 4 -31 3 -32 -3 -3 -66 86 -66 92 0 2 13 -3 29 -13 20 -11 31 -27 34 -47z m106 -20 c25 -66 26 -85 7 -85 -8 0 -21 -3 -30 -6 -11 -4 -16 0 -16 15 0 11 -7 39 -16 61 -16 39 -16 42 2 55 11 8 22 15 26 15 4 0 16 -25 27 -55z m-1094 -15 c10 -11 26 -22 36 -25 27 -9 23 -20 -8 -23 -14 -1 -35 -10 -45 -19 -25 -23 -32 -12 -24 42 8 50 15 54 41 25z m1395 -92 l0 -51 -22 20 c-13 11 -36 24 -53 28 l-30 7 30 12 c17 7 36 20 44 29 21 26 31 11 31 -45z m-1054 7 c-6 -30 -10 -34 -22 -25 -18 16 -18 29 3 52 22 24 27 17 19 -27z m696 -47 l-22 -22 0 44 0 44 22 -22 22 -22 -22 -22z m-868 33 c14 -1 17 -6 12 -24 -3 -13 -1 -48 3 -78 5 -30 8 -55 6 -57 -5 -6 -168 -42 -172 -39 -13 14 -30 197 -18 208 2 3 37 2 77 -2 40 -4 81 -8 92 -8z m996 -1 c0 -5 -5 -12 -11 -16 -14 -8 -33 11 -25 25 7 11 36 4 36 -9z m-884 -13 c1 -1 4 -30 7 -64 5 -60 4 -61 -22 -66 -14 -3 -27 -4 -28 -3 -1 1 -6 35 -9 76 l-7 73 29 -7 c16 -4 29 -8 30 -9z m839 -74 c-13 -91 -15 -95 -44 -88 -33 9 -32 6 -21 46 6 18 10 46 10 61 0 25 4 28 31 28 l31 0 -7 -47z m230 -5 c-11 -90 -28 -158 -39 -158 -6 0 -46 12 -89 26 -64 21 -77 29 -72 43 4 9 9 44 12 79 l6 62 94 0 95 0 -7 -52z m-981 -107 c-2 -2 -15 6 -29 19 -20 19 -22 26 -13 44 11 20 12 19 29 -19 10 -22 16 -42 13 -44z m646 32 c0 -8 -20 -38 -45 -65 -25 -28 -48 -61 -51 -73 -4 -16 -15 -24 -35 -27 -30 -5 -29 -4 24 51 29 31 62 75 72 98 17 41 35 49 35 16z m-684 -55 c9 -18 25 -42 35 -54 19 -20 19 -21 -4 -42 l-23 -22 -21 28 c-23 32 -56 93 -51 96 4 4 43 25 45 26 1 0 10 -15 19 -32z m-270 -12 l38 7 -44 -42 c-24 -22 -45 -41 -47 -41 -8 0 -33 70 -33 91 l0 22 24 -22 c20 -19 30 -21 62 -15z m987 1 l26 -14 -34 -51 c-43 -63 -51 -68 -75 -47 -19 17 -18 18 15 63 19 25 35 49 35 53 0 12 3 11 33 -4z m-770 -103 l27 -32 -69 -61 -69 -61 -34 47 c-43 59 -83 131 -77 137 3 3 40 20 84 39 l80 34 16 -36 c9 -20 28 -50 42 -67z m161 57 l48 -49 -34 11 c-25 8 -38 20 -50 49 -9 21 -16 38 -14 38 1 0 23 -22 50 -49z m906 -33 c-11 -29 -20 -54 -20 -55 0 -2 -4 -3 -10 -3 -5 0 -10 6 -10 14 0 8 -17 29 -37 47 l-37 32 40 -6 c28 -5 46 -2 60 8 32 24 35 17 14 -37z m-151 1 c42 -23 78 -43 79 -45 6 -4 -57 -93 -95 -135 l-33 -37 -64 66 -64 66 38 42 c21 22 41 51 45 63 3 11 9 21 12 21 4 0 40 -19 82 -41z m-677 -85 c16 -5 18 -11 13 -32 -4 -15 -8 -28 -10 -30 -6 -6 -101 46 -115 62 -11 14 -10 19 4 35 17 19 18 19 53 -4 19 -13 44 -27 55 -31z m55 34 c37 -13 41 -23 16 -32 -11 -5 -26 2 -42 19 -28 28 -23 31 26 13z m195 -30 c-20 -21 -23 -21 -38 -6 -16 16 -15 17 17 26 43 12 48 7 21 -20z m144 15 c7 -10 14 -23 14 -29 0 -11 -118 -70 -125 -62 -2 2 -6 14 -9 28 -5 22 0 28 47 51 28 14 54 27 56 28 2 0 10 -7 17 -16z m-434 -119 c23 -7 23 -13 -7 -86 -14 -34 -25 -67 -25 -75 0 -7 -5 -13 -11 -13 -14 0 -137 65 -166 88 l-22 17 57 70 56 71 51 -33 c27 -18 58 -36 67 -39z m245 62 c0 0 3 -12 5 -26 3 -25 2 -25 -64 -24 -38 0 -70 3 -73 6 -3 3 -3 17 0 30 6 23 9 24 68 20 34 -2 63 -5 64 -6z m286 -86 c27 -39 45 -75 41 -81 -7 -13 -165 -89 -183 -89 -6 0 -11 8 -11 18 0 9 -9 46 -20 80 -25 80 -25 79 8 87 15 3 46 17 67 30 22 13 42 24 45 24 3 0 27 -31 53 -69z m-765 10 c-28 -45 -30 -53 -19 -77 11 -25 11 -25 -6 -13 -37 28 -75 66 -84 82 -9 16 -7 17 15 6 22 -9 32 -7 73 20 26 18 49 32 50 32 1 0 -12 -23 -29 -50z m910 -47 c12 2 22 3 22 1 0 -7 -65 -66 -82 -75 -15 -8 -16 -5 -11 25 4 25 0 44 -16 69 -31 50 -26 53 22 12 29 -25 49 -35 65 -32z m-448 23 c30 7 31 4 46 -118 6 -56 6 -57 -20 -64 -25 -6 -173 3 -188 12 -3 2 -3 19 2 37 5 17 14 57 20 88 l11 56 50 -8 c28 -5 63 -6 79 -3z m-196 -116 c-5 -41 -3 -54 11 -70 24 -27 17 -32 -31 -19 -53 15 -63 26 -38 43 11 8 29 33 39 55 10 23 20 41 22 41 2 0 1 -23 -3 -50z m333 -52 c15 -15 24 -30 21 -33 -2 -3 -26 -9 -51 -14 -50 -9 -63 3 -32 29 9 7 15 30 16 54 0 37 1 39 10 16 6 -14 22 -37 36 -52z"/> <path d="M941 1218 c-66 -15 -145 -97 -160 -166 -30 -143 75 -275 219 -275 123 0 223 100 223 223 0 102 -76 198 -175 219 -27 6 -52 11 -56 10 -4 -1 -27 -6 -51 -11z m137 -59 c91 -45 127 -165 74 -251 -73 -118 -251 -110 -311 14 -27 56 -27 100 0 155 44 91 145 126 237 82z"/> </g> </svg> 